# xmcd CD database file generated by LOLA_Freedb v0.9beta0
# 
# Track frame offsets:
#      151
#      9133
#      20659
#      37042
#      47098
#      59139
#      71990
#      81161
#      97307
#      107635
#      119738
#      130862
#      142742
# 
# Disc length: 2108 seconds
# 
# Revision: 0 
# Processed by: cddbd v1.5.2PL0 Copyright (c) Steve Scherf et al.
# Submitted via: LOLA_Freedb v0.9beta0
# 
DISCID=be083a0d
DTITLE=Dusty Woodfield - My Life Style
DYEAR=2007
DGENRE=
TTITLE0=Dusty Woodfield - Don't Be Cruel
TTITLE1=Dusty Woodfield - The Fireman
TTITLE2=Dusty Woodfield - Where'm I Gonna Live
TTITLE3=Dusty Woodfield - Blue Moon Of Kentucky
TTITLE4=Dusty Woodfield - Little Sister
TTITLE5=Dusty Woodfield - Love Bug
TTITLE6=Dusty Woodfield - Love's Gonna Live Here
TTITLE7=Dusty Woodfield - Mercury Blues
TTITLE8=Dusty Woodfield - Bad Moon Rising
TTITLE9=Dusty Woodfield - Okie From Muskogee
TTITLE10=Dusty Woodfield - Truck Drivin' Man
TTITLE11=Dusty Woodfield - Roll In My Sweet Babys Arms
TTITLE12=Dusty Woodfield - My Live Style
EXTD=
EXTT0=
EXTT1=
EXTT2=
EXTT3=
EXTT4=
EXTT5=
EXTT6=
EXTT7=
EXTT8=
EXTT9=
EXTT10=
EXTT11=
EXTT12=
PLAYORDER=
